<mxfile host="Electron" modified="2023-12-17T09:11:18.025Z" agent="Mozilla/5.0 (Macintosh; Intel Mac OS X 10_15_7) AppleWebKit/537.36 (KHTML, like Gecko) draw.io/22.1.2 Chrome/114.0.5735.289 Electron/25.9.4 Safari/537.36" etag="wAPT5Uszd3WcACFNTh-h" version="22.1.2" type="device">
  <diagram name="Page-1" id="e7e014a7-5840-1c2e-5031-d8a46d1fe8dd">
    <mxGraphModel dx="1272" dy="819" grid="1" gridSize="10" guides="1" tooltips="1" connect="1" arrows="1" fold="1" page="1" pageScale="1" pageWidth="1169" pageHeight="826" background="none" math="0" shadow="0">
      <root>
        <mxCell id="0" />
        <mxCell id="1" parent="0" />
        <mxCell id="2" value="Emergency Vehicle" style="swimlane;whiteSpace=wrap" parent="1" vertex="1">
          <mxGeometry x="164.5" y="128" width="280" height="570" as="geometry" />
        </mxCell>
        <mxCell id="5" value="" style="ellipse;shape=startState;fillColor=#000000;strokeColor=#ff0000;" parent="2" vertex="1">
          <mxGeometry x="100" y="40" width="30" height="30" as="geometry" />
        </mxCell>
        <mxCell id="6" value="" style="edgeStyle=elbowEdgeStyle;elbow=horizontal;verticalAlign=bottom;endArrow=open;endSize=8;strokeColor=#FF0000;endFill=1;rounded=0" parent="2" source="5" target="7" edge="1">
          <mxGeometry x="100" y="40" as="geometry">
            <mxPoint x="115" y="110" as="targetPoint" />
          </mxGeometry>
        </mxCell>
        <mxCell id="7" value="E.V. Request" style="rounded=1;" parent="2" vertex="1">
          <mxGeometry x="40" y="110" width="160" height="40" as="geometry" />
        </mxCell>
        <mxCell id="qxaunaDZcRK-WvlP5FkL-44" value="Traffic Normal Trafffic Flow" style="rounded=1;whiteSpace=wrap;html=1;" vertex="1" parent="2">
          <mxGeometry x="50" y="255" width="200" height="45" as="geometry" />
        </mxCell>
        <mxCell id="qxaunaDZcRK-WvlP5FkL-45" value="Emergency Vehicle Passage" style="rounded=1;whiteSpace=wrap;html=1;" vertex="1" parent="2">
          <mxGeometry x="25.5" y="362" width="184.5" height="60" as="geometry" />
        </mxCell>
        <mxCell id="qxaunaDZcRK-WvlP5FkL-59" value="" style="ellipse;html=1;shape=endState;fillColor=#000000;strokeColor=#ff0000;" vertex="1" parent="2">
          <mxGeometry x="100" y="532" width="30" height="30" as="geometry" />
        </mxCell>
        <mxCell id="3" value="Traffic Control System" style="swimlane;whiteSpace=wrap" parent="1" vertex="1">
          <mxGeometry x="445" y="128" width="280" height="570" as="geometry" />
        </mxCell>
        <mxCell id="qxaunaDZcRK-WvlP5FkL-48" value="Yes" style="edgeStyle=orthogonalEdgeStyle;rounded=0;orthogonalLoop=1;jettySize=auto;html=1;exitX=1;exitY=0.5;exitDx=0;exitDy=0;" edge="1" parent="3" source="qxaunaDZcRK-WvlP5FkL-41">
          <mxGeometry relative="1" as="geometry">
            <mxPoint x="205" y="262" as="targetPoint" />
          </mxGeometry>
        </mxCell>
        <mxCell id="qxaunaDZcRK-WvlP5FkL-41" value="Priority Granted?" style="shape=hexagon;perimeter=hexagonPerimeter2;whiteSpace=wrap;html=1;fixedSize=1;" vertex="1" parent="3">
          <mxGeometry x="25.5" y="202" width="160" height="38" as="geometry" />
        </mxCell>
        <mxCell id="qxaunaDZcRK-WvlP5FkL-43" value="Adjust Traffic&amp;nbsp; Signals" style="rounded=1;whiteSpace=wrap;html=1;" vertex="1" parent="3">
          <mxGeometry x="105" y="263" width="170" height="45" as="geometry" />
        </mxCell>
        <mxCell id="qxaunaDZcRK-WvlP5FkL-46" value="" style="rhombus;whiteSpace=wrap;html=1;" vertex="1" parent="3">
          <mxGeometry x="140" y="460" width="40" height="20" as="geometry" />
        </mxCell>
        <mxCell id="qxaunaDZcRK-WvlP5FkL-47" style="edgeStyle=orthogonalEdgeStyle;rounded=0;orthogonalLoop=1;jettySize=auto;html=1;exitX=0.5;exitY=1;exitDx=0;exitDy=0;entryX=0.557;entryY=-0.096;entryDx=0;entryDy=0;entryPerimeter=0;" edge="1" parent="1" source="7" target="qxaunaDZcRK-WvlP5FkL-41">
          <mxGeometry relative="1" as="geometry">
            <Array as="points">
              <mxPoint x="280" y="300" />
              <mxPoint x="560" y="300" />
            </Array>
          </mxGeometry>
        </mxCell>
        <mxCell id="qxaunaDZcRK-WvlP5FkL-49" style="edgeStyle=orthogonalEdgeStyle;rounded=0;orthogonalLoop=1;jettySize=auto;html=1;exitX=0;exitY=0.5;exitDx=0;exitDy=0;entryX=0.633;entryY=0.03;entryDx=0;entryDy=0;entryPerimeter=0;" edge="1" parent="1" source="qxaunaDZcRK-WvlP5FkL-41" target="qxaunaDZcRK-WvlP5FkL-44">
          <mxGeometry relative="1" as="geometry" />
        </mxCell>
        <mxCell id="qxaunaDZcRK-WvlP5FkL-61" value="No" style="edgeLabel;html=1;align=center;verticalAlign=middle;resizable=0;points=[];" vertex="1" connectable="0" parent="qxaunaDZcRK-WvlP5FkL-49">
          <mxGeometry x="-0.8037" y="1" relative="1" as="geometry">
            <mxPoint as="offset" />
          </mxGeometry>
        </mxCell>
        <mxCell id="qxaunaDZcRK-WvlP5FkL-50" style="edgeStyle=orthogonalEdgeStyle;rounded=0;orthogonalLoop=1;jettySize=auto;html=1;entryX=0.5;entryY=0;entryDx=0;entryDy=0;" edge="1" parent="1" source="qxaunaDZcRK-WvlP5FkL-43" target="qxaunaDZcRK-WvlP5FkL-45">
          <mxGeometry relative="1" as="geometry">
            <Array as="points">
              <mxPoint x="635" y="460" />
              <mxPoint x="282" y="460" />
            </Array>
          </mxGeometry>
        </mxCell>
        <mxCell id="qxaunaDZcRK-WvlP5FkL-54" style="edgeStyle=orthogonalEdgeStyle;rounded=0;orthogonalLoop=1;jettySize=auto;html=1;entryX=0;entryY=0.5;entryDx=0;entryDy=0;" edge="1" parent="1" source="qxaunaDZcRK-WvlP5FkL-45" target="qxaunaDZcRK-WvlP5FkL-46">
          <mxGeometry relative="1" as="geometry">
            <Array as="points">
              <mxPoint x="282" y="598" />
            </Array>
          </mxGeometry>
        </mxCell>
        <mxCell id="qxaunaDZcRK-WvlP5FkL-58" style="edgeStyle=orthogonalEdgeStyle;rounded=0;orthogonalLoop=1;jettySize=auto;html=1;entryX=1;entryY=0.5;entryDx=0;entryDy=0;" edge="1" parent="1" source="qxaunaDZcRK-WvlP5FkL-44" target="qxaunaDZcRK-WvlP5FkL-46">
          <mxGeometry relative="1" as="geometry">
            <Array as="points">
              <mxPoint x="314" y="480" />
              <mxPoint x="645" y="480" />
              <mxPoint x="645" y="598" />
            </Array>
          </mxGeometry>
        </mxCell>
        <mxCell id="qxaunaDZcRK-WvlP5FkL-60" style="edgeStyle=orthogonalEdgeStyle;rounded=0;orthogonalLoop=1;jettySize=auto;html=1;entryX=0.5;entryY=0;entryDx=0;entryDy=0;" edge="1" parent="1" source="qxaunaDZcRK-WvlP5FkL-46" target="qxaunaDZcRK-WvlP5FkL-59">
          <mxGeometry relative="1" as="geometry">
            <Array as="points">
              <mxPoint x="605" y="640" />
              <mxPoint x="280" y="640" />
            </Array>
          </mxGeometry>
        </mxCell>
      </root>
    </mxGraphModel>
  </diagram>
</mxfile>
